<?xml version="1.0" encoding="UTF-8"?>
<svg xmlns="http://www.w3.org/2000/svg" xmlns:xlink="http://www.w3.org/1999/xlink" width="432pt" height="216pt" viewBox="0 0 432 216">
<defs>
<g>
<g id="glyph-0-0">
<path d="M 2.554688 0 L -0.00390625 -7.15625 L 1.5625 -7.15625 L 3.375 -1.859375 L 5.125 -7.15625 L 6.660156 -7.15625 L 4.097656 0 Z M 2.554688 0 "/>
</g>
<g id="glyph-0-1">
<path d="M 3.9375 0 L 2.5625 0 L 2.5625 -5.171875 C 2.0625 -4.703125 1.472656 -4.355469 0.789062 -4.132812 L 0.789062 -5.375 C 1.148438 -5.492188 1.539062 -5.714844 1.957031 -6.042969 C 2.378906 -6.371094 2.664062 -6.75 2.820312 -7.1875 L 3.9375 -7.1875 Z M 3.9375 0 "/>
</g>
<g id="glyph-0-2">
<path d="M 5.058594 -1.273438 L 5.058594 0 L 0.25 0 C 0.300781 -0.480469 0.457031 -0.9375 0.71875 -1.371094 C 0.976562 -1.800781 1.492188 -2.375 2.261719 -3.085938 C 2.878906 -3.664062 3.257812 -4.054688 3.398438 -4.257812 C 3.585938 -4.539062 3.679688 -4.820312 3.679688 -5.097656 C 3.679688 -5.402344 3.597656 -5.640625 3.433594 -5.804688 C 3.269531 -5.96875 3.042969 -6.050781 2.753906 -6.050781 C 2.46875 -6.050781 2.238281 -5.964844 2.070312 -5.789062 C 1.902344 -5.617188 1.804688 -5.332031 1.777344 -4.929688 L 0.410156 -5.070312 C 0.492188 -5.824219 0.746094 -6.367188 1.175781 -6.695312 C 1.605469 -7.023438 2.144531 -7.1875 2.789062 -7.1875 C 3.496094 -7.1875 4.050781 -6.996094 4.453125 -6.617188 C 4.855469 -6.234375 5.058594 -5.761719 5.058594 -5.195312 C 5.058594 -4.875 5 -4.566406 4.886719 -4.273438 C 4.769531 -3.984375 4.585938 -3.679688 4.335938 -3.359375 C 4.167969 -3.148438 3.871094 -2.84375 3.4375 -2.445312 C 3.003906 -2.050781 2.730469 -1.785156 2.613281 -1.65625 C 2.5 -1.523438 2.40625 -1.398438 2.335938 -1.273438 Z M 5.058594 -1.273438 "/>
</g>
<g id="glyph-0-3">
<path d="M 0.375 -1.898438 L 1.703125 -2.0625 C 1.746094 -1.722656 1.859375 -1.464844 2.046875 -1.285156 C 2.230469 -1.105469 2.457031 -1.015625 2.71875 -1.015625 C 3.003906 -1.015625 3.242188 -1.125 3.433594 -1.335938 C 3.628906 -1.554688 3.726562 -1.84375 3.726562 -2.207031 C 3.726562 -2.550781 3.632812 -2.824219 3.445312 -3.027344 C 3.261719 -3.230469 3.035156 -3.328125 2.769531 -3.328125 C 2.59375 -3.328125 2.382812 -3.296875 2.140625 -3.226562 L 2.289062 -4.34375 C 2.660156 -4.335938 2.945312 -4.417969 3.140625 -4.585938 C 3.335938 -4.757812 3.433594 -4.984375 3.433594 -5.269531 C 3.433594 -5.507812 3.359375 -5.703125 3.21875 -5.84375 C 3.074219 -5.988281 2.882812 -6.058594 2.648438 -6.058594 C 2.414062 -6.058594 2.210938 -5.976562 2.046875 -5.816406 C 1.878906 -5.652344 1.777344 -5.414062 1.742188 -5.101562 L 0.476562 -5.316406 C 0.566406 -5.75 0.699219 -6.097656 0.875 -6.355469 C 1.054688 -6.613281 1.300781 -6.816406 1.617188 -6.964844 C 1.9375 -7.113281 2.292969 -7.1875 2.6875 -7.1875 C 3.359375 -7.1875 3.898438 -6.972656 4.304688 -6.542969 C 4.640625 -6.191406 4.808594 -5.792969 4.808594 -5.351562 C 4.808594 -4.722656 4.464844 -4.222656 3.78125 -3.847656 C 4.1875 -3.757812 4.515625 -3.5625 4.761719 -3.257812 C 5.007812 -2.949219 5.132812 -2.582031 5.132812 -2.148438 C 5.132812 -1.519531 4.902344 -0.984375 4.445312 -0.542969 C 3.984375 -0.0976562 3.414062 0.121094 2.730469 0.121094 C 2.082031 0.121094 1.542969 -0.0625 1.117188 -0.4375 C 0.691406 -0.808594 0.445312 -1.296875 0.375 -1.898438 Z M 0.375 -1.898438 "/>
</g>
<g id="glyph-0-4">
<path d="M 3.117188 0 L 3.117188 -1.441406 L 0.1875 -1.441406 L 0.1875 -2.640625 L 3.289062 -7.1875 L 4.445312 -7.1875 L 4.445312 -2.648438 L 5.332031 -2.648438 L 5.332031 -1.441406 L 4.445312 -1.441406 L 4.445312 0 L 3.117188 0 M 3.117188 -2.648438 L 3.117188 -5.09375 L 1.46875 -2.648438 Z M 3.117188 -2.648438 "/>
</g>
<g id="glyph-1-0">
<path d="M 0.421875 0 L 1.917969 -7.15625 L 2.871094 -7.15625 L 2.25 -4.183594 L 5.960938 -4.183594 L 6.582031 -7.15625 L 7.539062 -7.15625 L 6.046875 0 L 5.085938 0 L 5.789062 -3.375 L 2.085938 -3.375 L 1.375 0 Z M 0.421875 0 "/>
</g>
<g id="glyph-1-1">
<path d="M 0.570312 0 L 2.070312 -7.15625 L 3.023438 -7.15625 L 1.527344 0 Z M 0.570312 0 "/>
</g>
<g id="glyph-1-2">
<path d="M 0.453125 0 L 1.949219 -7.15625 L 6.601562 -7.15625 L 6.429688 -6.34375 L 2.734375 -6.34375 L 2.261719 -4.0625 L 6.023438 -4.0625 L 5.855469 -3.246094 L 2.089844 -3.246094 L 1.410156 0 Z M 0.453125 0 "/>
</g>
<g id="glyph-1-3">
<path d="M 2.40625 0 L 3.539062 -5.40625 C 3.050781 -5.019531 2.363281 -4.714844 1.480469 -4.484375 L 1.644531 -5.28125 C 2.085938 -5.460938 2.519531 -5.6875 2.945312 -5.972656 C 3.375 -6.253906 3.695312 -6.503906 3.910156 -6.714844 C 4.042969 -6.84375 4.164062 -7 4.28125 -7.1875 L 4.796875 -7.1875 L 3.296875 0 Z M 2.40625 0 "/>
</g>
<g id="glyph-1-4">
<path d="M -0.199219 0 L 3.859375 -7.15625 L 4.984375 -7.15625 L 6.167969 0 L 5.238281 0 L 4.890625 -2.0625 L 1.996094 -2.0625 L 0.851562 0 L -0.199219 0 M 2.40625 -2.796875 L 4.773438 -2.796875 L 4.496094 -4.59375 C 4.390625 -5.308594 4.324219 -5.902344 4.296875 -6.375 C 4.132812 -5.96875 3.898438 -5.480469 3.585938 -4.917969 Z M 2.40625 -2.796875 "/>
</g>
<g id="glyph-1-5">
<path d="M 0.46875 0 L 1.96875 -7.15625 L 4.96875 -7.15625 C 5.5625 -7.15625 6.011719 -7.109375 6.320312 -7.007812 C 6.625 -6.910156 6.863281 -6.722656 7.039062 -6.449219 C 7.210938 -6.175781 7.300781 -5.832031 7.300781 -5.414062 C 7.300781 -4.832031 7.109375 -4.347656 6.726562 -3.964844 C 6.347656 -3.582031 5.734375 -3.332031 4.882812 -3.21875 C 5.144531 -3.027344 5.339844 -2.835938 5.472656 -2.652344 C 5.773438 -2.230469 6.015625 -1.796875 6.195312 -1.347656 L 6.742188 0 L 5.671875 0 L 5.160156 -1.332031 C 4.976562 -1.816406 4.765625 -2.230469 4.527344 -2.582031 C 4.363281 -2.828125 4.199219 -2.988281 4.027344 -3.0625 C 3.859375 -3.140625 3.585938 -3.179688 3.203125 -3.179688 L 2.089844 -3.179688 L 1.425781 0 L 0.46875 0 M 2.25 -3.953125 L 3.574219 -3.953125 C 4.1875 -3.953125 4.585938 -3.964844 4.769531 -3.980469 C 5.132812 -4.015625 5.429688 -4.097656 5.660156 -4.222656 C 5.890625 -4.351562 6.070312 -4.523438 6.195312 -4.734375 C 6.324219 -4.953125 6.386719 -5.183594 6.386719 -5.429688 C 6.386719 -5.636719 6.339844 -5.820312 6.246094 -5.972656 C 6.152344 -6.128906 6.027344 -6.234375 5.875 -6.289062 C 5.722656 -6.34375 5.460938 -6.371094 5.09375 -6.371094 L 2.757812 -6.371094 Z M 2.25 -3.953125 "/>
</g>
<g id="glyph-1-6">
<path d="M 0.699219 -2.046875 L 1.597656 -2.132812 C 1.589844 -2.007812 1.585938 -1.929688 1.585938 -1.90625 C 1.585938 -1.6875 1.640625 -1.472656 1.75 -1.253906 C 1.859375 -1.035156 2.007812 -0.871094 2.195312 -0.753906 C 2.382812 -0.640625 2.578125 -0.582031 2.789062 -0.582031 C 3.0625 -0.582031 3.339844 -0.675781 3.625 -0.863281 C 3.90625 -1.054688 4.136719 -1.328125 4.3125 -1.6875 C 4.488281 -2.050781 4.574219 -2.410156 4.574219 -2.765625 C 4.574219 -3.164062 4.457031 -3.484375 4.222656 -3.726562 C 3.984375 -3.964844 3.675781 -4.085938 3.289062 -4.085938 C 3.035156 -4.085938 2.789062 -4.023438 2.5625 -3.902344 C 2.332031 -3.777344 2.117188 -3.59375 1.917969 -3.34375 L 1.148438 -3.398438 L 2.226562 -7.0625 L 5.722656 -7.0625 L 5.550781 -6.25 L 2.832031 -6.25 L 2.296875 -4.429688 C 2.496094 -4.574219 2.703125 -4.683594 2.917969 -4.757812 C 3.128906 -4.832031 3.351562 -4.867188 3.574219 -4.867188 C 4.121094 -4.867188 4.570312 -4.6875 4.921875 -4.328125 C 5.273438 -3.964844 5.449219 -3.46875 5.449219 -2.84375 C 5.449219 -2.292969 5.328125 -1.785156 5.085938 -1.320312 C 4.847656 -0.855469 4.515625 -0.5 4.09375 -0.25 C 3.671875 -0.00390625 3.21875 0.121094 2.730469 0.121094 C 2.320312 0.121094 1.957031 0.0273438 1.640625 -0.15625 C 1.324219 -0.339844 1.089844 -0.597656 0.929688 -0.921875 C 0.773438 -1.25 0.695312 -1.574219 0.695312 -1.898438 C 0.695312 -1.933594 0.695312 -1.980469 0.699219 -2.046875 Z M 0.699219 -2.046875 "/>
</g>
<g id="glyph-1-7">
<path d="M 0.4375 0 L 1.933594 -7.15625 L 3.109375 -7.15625 L 3.832031 -2.519531 C 3.925781 -1.910156 3.988281 -1.328125 4.019531 -0.765625 C 4.21875 -1.25 4.550781 -1.902344 5.015625 -2.726562 L 7.523438 -7.15625 L 8.71875 -7.15625 L 7.226562 0 L 6.285156 0 L 7.03125 -3.480469 C 7.203125 -4.285156 7.453125 -5.1875 7.773438 -6.1875 C 7.570312 -5.722656 7.3125 -5.21875 7.011719 -4.683594 L 4.34375 0 L 3.421875 0 L 2.703125 -4.589844 C 2.640625 -5.007812 2.59375 -5.5 2.5625 -6.058594 C 2.480469 -5.429688 2.402344 -4.933594 2.324219 -4.566406 L 1.371094 0 Z M 0.4375 0 "/>
</g>
<g id="glyph-1-8">
<path d="M 2.792969 0 L 3.367188 -2.769531 L 1.167969 -7.15625 L 2.191406 -7.15625 L 3.246094 -5.070312 C 3.476562 -4.613281 3.703125 -4.125 3.921875 -3.601562 C 4.160156 -4.046875 4.492188 -4.53125 4.90625 -5.054688 L 6.585938 -7.15625 L 7.730469 -7.15625 L 4.3125 -2.695312 L 3.75 0 Z M 2.792969 0 "/>
</g>
<g id="glyph-1-9">
<path d="M 6.03125 -2.519531 L 6.976562 -2.386719 C 6.679688 -1.5625 6.242188 -0.9375 5.667969 -0.511719 C 5.097656 -0.0898438 4.453125 0.121094 3.742188 0.121094 C 2.871094 0.121094 2.183594 -0.144531 1.671875 -0.671875 C 1.164062 -1.203125 0.90625 -1.964844 0.90625 -2.953125 C 0.90625 -4.242188 1.296875 -5.308594 2.070312 -6.152344 C 2.761719 -6.90625 3.617188 -7.28125 4.644531 -7.28125 C 5.402344 -7.28125 6.015625 -7.078125 6.488281 -6.671875 C 6.957031 -6.261719 7.230469 -5.714844 7.304688 -5.03125 L 6.410156 -4.945312 C 6.316406 -5.464844 6.121094 -5.851562 5.828125 -6.105469 C 5.53125 -6.363281 5.152344 -6.488281 4.6875 -6.488281 C 3.8125 -6.488281 3.105469 -6.101562 2.5625 -5.320312 C 2.09375 -4.652344 1.859375 -3.855469 1.859375 -2.933594 C 1.859375 -2.199219 2.039062 -1.636719 2.402344 -1.25 C 2.765625 -0.863281 3.234375 -0.667969 3.8125 -0.667969 C 4.308594 -0.667969 4.753906 -0.828125 5.15625 -1.152344 C 5.554688 -1.476562 5.847656 -1.929688 6.03125 -2.519531 Z M 6.03125 -2.519531 "/>
</g>
<g id="glyph-1-10">
<path d="M 0.449219 0 L 1.949219 -7.15625 L 7.113281 -7.15625 L 6.945312 -6.34375 L 2.734375 -6.34375 L 2.265625 -4.117188 L 6.367188 -4.117188 L 6.195312 -3.300781 L 2.09375 -3.300781 L 1.578125 -0.8125 L 6.085938 -0.8125 L 5.914062 0 Z M 0.449219 0 "/>
</g>
<g id="glyph-1-11">
<path d="M 0.398438 0 L 1.894531 -7.15625 L 2.851562 -7.15625 L 1.527344 -0.8125 L 5.242188 -0.8125 L 5.074219 0 Z M 0.398438 0 "/>
</g>
<g id="glyph-1-12">
<path d="M 0.703125 -2.3125 L 1.640625 -2.402344 L 1.632812 -2.152344 C 1.632812 -1.875 1.695312 -1.625 1.820312 -1.394531 C 1.949219 -1.164062 2.15625 -0.988281 2.453125 -0.863281 C 2.742188 -0.738281 3.09375 -0.671875 3.496094 -0.671875 C 4.070312 -0.671875 4.507812 -0.800781 4.808594 -1.050781 C 5.109375 -1.300781 5.257812 -1.585938 5.257812 -1.910156 C 5.257812 -2.132812 5.179688 -2.339844 5.019531 -2.523438 C 4.855469 -2.707031 4.414062 -2.953125 3.6875 -3.265625 C 3.125 -3.511719 2.738281 -3.699219 2.535156 -3.828125 C 2.210938 -4.039062 1.972656 -4.269531 1.820312 -4.519531 C 1.667969 -4.769531 1.59375 -5.050781 1.59375 -5.371094 C 1.59375 -5.738281 1.691406 -6.070312 1.894531 -6.367188 C 2.097656 -6.664062 2.390625 -6.890625 2.78125 -7.046875 C 3.167969 -7.203125 3.609375 -7.28125 4.097656 -7.28125 C 4.679688 -7.28125 5.171875 -7.183594 5.570312 -6.988281 C 5.972656 -6.792969 6.261719 -6.53125 6.441406 -6.207031 C 6.625 -5.878906 6.714844 -5.570312 6.714844 -5.273438 C 6.714844 -5.242188 6.710938 -5.195312 6.710938 -5.125 L 5.785156 -5.054688 C 5.785156 -5.253906 5.769531 -5.414062 5.734375 -5.527344 C 5.667969 -5.726562 5.566406 -5.894531 5.429688 -6.03125 C 5.292969 -6.167969 5.105469 -6.277344 4.867188 -6.359375 C 4.625 -6.441406 4.359375 -6.484375 4.0625 -6.484375 C 3.542969 -6.484375 3.136719 -6.367188 2.847656 -6.132812 C 2.625 -5.953125 2.515625 -5.714844 2.515625 -5.421875 C 2.515625 -5.242188 2.558594 -5.085938 2.652344 -4.949219 C 2.742188 -4.808594 2.90625 -4.675781 3.144531 -4.539062 C 3.3125 -4.445312 3.714844 -4.257812 4.351562 -3.980469 C 4.863281 -3.75 5.21875 -3.574219 5.414062 -3.441406 C 5.675781 -3.269531 5.875 -3.0625 6.015625 -2.816406 C 6.15625 -2.570312 6.226562 -2.289062 6.226562 -1.976562 C 6.226562 -1.589844 6.109375 -1.234375 5.871094 -0.90625 C 5.636719 -0.578125 5.308594 -0.324219 4.890625 -0.148438 C 4.476562 0.03125 4 0.121094 3.460938 0.121094 C 2.652344 0.121094 1.988281 -0.0546875 1.476562 -0.40625 C 0.964844 -0.761719 0.707031 -1.398438 0.703125 -2.3125 Z M 0.703125 -2.3125 "/>
</g>
<g id="glyph-1-13">
<path d="M 2.269531 0 L 3.59375 -6.34375 L 1.246094 -6.34375 L 1.414062 -7.15625 L 7.050781 -7.15625 L 6.878906 -6.34375 L 4.550781 -6.34375 L 3.226562 0 Z M 2.269531 0 "/>
</g>
<g id="glyph-1-14">
<path d="M 0.488281 0 L 1.988281 -7.15625 L 2.914062 -7.15625 L 4.121094 -4.472656 C 4.488281 -3.652344 4.78125 -2.960938 4.996094 -2.402344 C 5.117188 -2.078125 5.261719 -1.636719 5.425781 -1.085938 C 5.511719 -1.6875 5.625 -2.308594 5.757812 -2.949219 L 6.636719 -7.15625 L 7.570312 -7.15625 L 6.074219 0 L 5.125 0 L 3.351562 -4.136719 C 3.035156 -4.863281 2.789062 -5.507812 2.613281 -6.0625 C 2.5625 -5.597656 2.46875 -5.027344 2.328125 -4.351562 L 1.421875 0 Z M 0.488281 0 "/>
</g>
<g id="glyph-1-15">
<path d="M 0.433594 0 L 1.933594 -7.15625 L 4.148438 -7.15625 C 4.554688 -7.15625 4.851562 -7.140625 5.046875 -7.109375 C 5.367188 -7.054688 5.636719 -6.957031 5.855469 -6.820312 C 6.078125 -6.679688 6.246094 -6.492188 6.367188 -6.253906 C 6.488281 -6.011719 6.546875 -5.75 6.546875 -5.460938 C 6.546875 -5.066406 6.441406 -4.71875 6.222656 -4.417969 C 6.007812 -4.121094 5.675781 -3.890625 5.230469 -3.734375 C 5.617188 -3.609375 5.90625 -3.417969 6.097656 -3.160156 C 6.289062 -2.90625 6.386719 -2.609375 6.386719 -2.265625 C 6.386719 -1.871094 6.273438 -1.492188 6.046875 -1.132812 C 5.820312 -0.773438 5.523438 -0.492188 5.148438 -0.296875 C 4.777344 -0.0976562 4.359375 0 3.902344 0 L 0.433594 0 M 2.25 -4.101562 L 3.703125 -4.101562 C 4.394531 -4.101562 4.894531 -4.210938 5.199219 -4.433594 C 5.503906 -4.65625 5.65625 -4.976562 5.65625 -5.398438 C 5.65625 -5.601562 5.605469 -5.777344 5.511719 -5.921875 C 5.417969 -6.070312 5.292969 -6.175781 5.132812 -6.242188 C 4.976562 -6.308594 4.679688 -6.34375 4.242188 -6.34375 L 2.71875 -6.34375 L 2.25 -4.101562 M 1.5625 -0.8125 L 3.195312 -0.8125 C 3.625 -0.8125 3.917969 -0.824219 4.066406 -0.855469 C 4.371094 -0.90625 4.617188 -0.996094 4.804688 -1.121094 C 4.992188 -1.246094 5.140625 -1.410156 5.25 -1.617188 C 5.355469 -1.820312 5.410156 -2.035156 5.410156 -2.261719 C 5.410156 -2.597656 5.304688 -2.851562 5.09375 -3.023438 C 4.886719 -3.199219 4.484375 -3.285156 3.898438 -3.285156 L 2.078125 -3.285156 Z M 1.5625 -0.8125 "/>
</g>
<g id="glyph-1-16">
<path d="M 0.40625 -2.085938 L 1.292969 -2.148438 C 1.242188 -1.871094 1.214844 -1.667969 1.214844 -1.539062 C 1.214844 -1.273438 1.296875 -1.0625 1.460938 -0.90625 C 1.625 -0.746094 1.855469 -0.667969 2.148438 -0.667969 C 2.359375 -0.667969 2.546875 -0.71875 2.707031 -0.8125 C 2.867188 -0.910156 3 -1.058594 3.101562 -1.257812 C 3.179688 -1.414062 3.257812 -1.6875 3.339844 -2.085938 L 4.40625 -7.15625 L 5.355469 -7.15625 L 4.265625 -1.929688 C 4.113281 -1.191406 3.859375 -0.667969 3.5 -0.351562 C 3.144531 -0.0351562 2.6875 0.121094 2.128906 0.121094 C 1.535156 0.121094 1.089844 -0.015625 0.785156 -0.289062 C 0.484375 -0.5625 0.332031 -0.945312 0.332031 -1.441406 C 0.332031 -1.660156 0.355469 -1.875 0.40625 -2.085938 Z M 0.40625 -2.085938 "/>
</g>
<g id="glyph-1-17">
<path d="M 1.984375 -7.15625 L 2.9375 -7.15625 L 2.023438 -2.757812 C 1.945312 -2.394531 1.910156 -2.125 1.910156 -1.949219 C 1.910156 -1.5625 2.0625 -1.253906 2.363281 -1.019531 C 2.664062 -0.785156 3.046875 -0.667969 3.507812 -0.667969 C 3.871094 -0.667969 4.210938 -0.753906 4.523438 -0.921875 C 4.839844 -1.089844 5.085938 -1.335938 5.269531 -1.660156 C 5.449219 -1.984375 5.617188 -2.503906 5.761719 -3.21875 L 6.585938 -7.15625 L 7.542969 -7.15625 L 6.671875 -2.960938 C 6.519531 -2.242188 6.324219 -1.675781 6.078125 -1.257812 C 5.835938 -0.839844 5.496094 -0.503906 5.0625 -0.25 C 4.628906 0 4.128906 0.125 3.554688 0.125 C 3.015625 0.125 2.546875 0.0390625 2.152344 -0.140625 C 1.753906 -0.320312 1.460938 -0.566406 1.261719 -0.882812 C 1.066406 -1.199219 0.964844 -1.558594 0.96875 -1.957031 C 0.964844 -2.207031 1.035156 -2.640625 1.167969 -3.25 Z M 1.984375 -7.15625 "/>
</g>
<g id="glyph-1-18">
<path d="M 0.445312 0 L 1.9375 -7.15625 L 2.894531 -7.15625 L 2.179688 -3.710938 L 6.0625 -7.15625 L 7.414062 -7.15625 L 4.085938 -4.242188 L 6.523438 0 L 5.453125 0 L 3.390625 -3.628906 L 1.890625 -2.324219 L 1.402344 0 Z M 0.445312 0 "/>
</g>
<g id="glyph-1-19">
<path d="M 0.914062 -3 C 0.914062 -4.273438 1.28125 -5.308594 2.019531 -6.097656 C 2.757812 -6.886719 3.652344 -7.28125 4.703125 -7.28125 C 5.59375 -7.28125 6.320312 -6.988281 6.882812 -6.410156 C 7.445312 -5.828125 7.726562 -5.046875 7.726562 -4.070312 C 7.726562 -3.375 7.582031 -2.730469 7.300781 -2.132812 C 7.089844 -1.6875 6.820312 -1.304688 6.5 -0.980469 C 6.175781 -0.65625 5.832031 -0.40625 5.464844 -0.230469 C 4.976562 0.00390625 4.457031 0.121094 3.910156 0.121094 C 3.339844 0.121094 2.816406 -0.015625 2.347656 -0.289062 C 1.875 -0.5625 1.519531 -0.941406 1.277344 -1.433594 C 1.035156 -1.921875 0.914062 -2.445312 0.914062 -3 M 1.855469 -2.949219 C 1.855469 -2.53125 1.941406 -2.144531 2.117188 -1.792969 C 2.289062 -1.441406 2.550781 -1.164062 2.894531 -0.96875 C 3.242188 -0.769531 3.601562 -0.667969 3.984375 -0.667969 C 4.351562 -0.667969 4.703125 -0.757812 5.035156 -0.929688 C 5.367188 -1.105469 5.664062 -1.347656 5.925781 -1.65625 C 6.1875 -1.96875 6.394531 -2.351562 6.546875 -2.804688 C 6.695312 -3.257812 6.773438 -3.707031 6.773438 -4.144531 C 6.773438 -4.859375 6.574219 -5.425781 6.175781 -5.851562 C 5.777344 -6.273438 5.28125 -6.484375 4.695312 -6.484375 C 3.949219 -6.484375 3.289062 -6.164062 2.714844 -5.523438 C 2.140625 -4.886719 1.855469 -4.027344 1.855469 -2.949219 Z M 1.855469 -2.949219 "/>
</g>
<g id="glyph-1-20">
<path d="M 2.011719 -4.148438 C 2.257812 -4.355469 2.503906 -4.507812 2.75 -4.613281 C 2.996094 -4.714844 3.242188 -4.765625 3.480469 -4.765625 C 4.023438 -4.765625 4.472656 -4.578125 4.828125 -4.210938 C 5.183594 -3.835938 5.359375 -3.339844 5.359375 -2.710938 C 5.359375 -1.898438 5.097656 -1.203125 4.570312 -0.625 C 4.113281 -0.128906 3.5625 0.121094 2.910156 0.121094 C 2.316406 0.121094 1.824219 -0.09375 1.429688 -0.53125 C 1.03125 -0.964844 0.835938 -1.582031 0.835938 -2.386719 C 0.835938 -3.105469 0.960938 -3.851562 1.214844 -4.617188 C 1.410156 -5.207031 1.652344 -5.695312 1.941406 -6.078125 C 2.230469 -6.460938 2.535156 -6.738281 2.859375 -6.917969 C 3.183594 -7.097656 3.546875 -7.1875 3.953125 -7.1875 C 4.441406 -7.1875 4.84375 -7.035156 5.152344 -6.730469 C 5.460938 -6.425781 5.636719 -5.992188 5.679688 -5.425781 L 4.859375 -5.347656 C 4.8125 -5.734375 4.703125 -6.015625 4.527344 -6.1875 C 4.355469 -6.359375 4.140625 -6.445312 3.890625 -6.445312 C 3.628906 -6.445312 3.363281 -6.34375 3.09375 -6.136719 C 2.828125 -5.933594 2.597656 -5.628906 2.40625 -5.226562 C 2.214844 -4.824219 2.082031 -4.464844 2.011719 -4.148438 M 1.703125 -2.011719 C 1.703125 -1.609375 1.828125 -1.269531 2.078125 -0.992188 C 2.332031 -0.71875 2.613281 -0.582031 2.929688 -0.582031 C 3.152344 -0.582031 3.386719 -0.664062 3.632812 -0.832031 C 3.878906 -1 4.089844 -1.253906 4.261719 -1.597656 C 4.433594 -1.9375 4.523438 -2.277344 4.523438 -2.617188 C 4.523438 -3.054688 4.402344 -3.402344 4.164062 -3.664062 C 3.921875 -3.925781 3.632812 -4.058594 3.296875 -4.058594 C 2.90625 -4.058594 2.542969 -3.867188 2.207031 -3.484375 C 1.871094 -3.101562 1.703125 -2.609375 1.703125 -2.011719 Z M 1.703125 -2.011719 "/>
</g>
<g id="glyph-1-21">
<path d="M 0.546875 -1.875 L 1.40625 -1.984375 C 1.472656 -1.480469 1.617188 -1.121094 1.839844 -0.90625 C 2.0625 -0.6875 2.351562 -0.582031 2.714844 -0.582031 C 3.152344 -0.582031 3.527344 -0.738281 3.84375 -1.050781 C 4.164062 -1.363281 4.320312 -1.71875 4.320312 -2.125 C 4.320312 -2.476562 4.203125 -2.765625 3.964844 -2.996094 C 3.726562 -3.226562 3.40625 -3.339844 3.007812 -3.339844 C 2.960938 -3.339844 2.867188 -3.332031 2.726562 -3.320312 L 2.875 -4.058594 C 2.960938 -4.042969 3.042969 -4.039062 3.121094 -4.039062 C 3.625 -4.039062 4.011719 -4.160156 4.285156 -4.40625 C 4.554688 -4.652344 4.691406 -4.953125 4.691406 -5.3125 C 4.691406 -5.640625 4.582031 -5.917969 4.359375 -6.140625 C 4.136719 -6.367188 3.863281 -6.480469 3.539062 -6.480469 C 3.222656 -6.480469 2.941406 -6.363281 2.6875 -6.136719 C 2.4375 -5.90625 2.273438 -5.582031 2.203125 -5.160156 L 1.332031 -5.335938 C 1.476562 -5.925781 1.75 -6.382812 2.15625 -6.703125 C 2.566406 -7.027344 3.046875 -7.1875 3.601562 -7.1875 C 4.1875 -7.1875 4.664062 -7.011719 5.027344 -6.65625 C 5.390625 -6.300781 5.570312 -5.863281 5.570312 -5.347656 C 5.570312 -4.96875 5.472656 -4.640625 5.277344 -4.359375 C 5.078125 -4.078125 4.785156 -3.84375 4.390625 -3.65625 C 4.667969 -3.492188 4.878906 -3.289062 5.015625 -3.054688 C 5.15625 -2.820312 5.226562 -2.554688 5.226562 -2.25 C 5.226562 -1.609375 4.984375 -1.054688 4.503906 -0.582031 C 4.023438 -0.113281 3.449219 0.121094 2.78125 0.121094 C 2.136719 0.121094 1.613281 -0.0585938 1.214844 -0.421875 C 0.816406 -0.785156 0.59375 -1.269531 0.546875 -1.875 Z M 0.546875 -1.875 "/>
</g>
<g id="glyph-1-22">
<path d="M 0.445312 0 L 1.9375 -7.15625 L 4.097656 -7.15625 C 4.613281 -7.15625 5.007812 -7.121094 5.28125 -7.046875 C 5.671875 -6.945312 6.007812 -6.765625 6.285156 -6.507812 C 6.5625 -6.246094 6.769531 -5.925781 6.910156 -5.539062 C 7.050781 -5.148438 7.117188 -4.714844 7.117188 -4.234375 C 7.117188 -3.65625 7.03125 -3.132812 6.859375 -2.660156 C 6.683594 -2.183594 6.457031 -1.769531 6.175781 -1.410156 C 5.894531 -1.050781 5.597656 -0.765625 5.289062 -0.5625 C 4.984375 -0.359375 4.617188 -0.210938 4.199219 -0.113281 C 3.878906 -0.0390625 3.488281 0 3.023438 0 L 0.445312 0 M 1.570312 -0.8125 L 2.703125 -0.8125 C 3.214844 -0.8125 3.671875 -0.859375 4.066406 -0.953125 C 4.316406 -1.011719 4.527344 -1.097656 4.703125 -1.210938 C 4.933594 -1.359375 5.144531 -1.550781 5.332031 -1.792969 C 5.578125 -2.109375 5.777344 -2.476562 5.925781 -2.882812 C 6.074219 -3.292969 6.148438 -3.757812 6.148438 -4.277344 C 6.148438 -4.855469 6.046875 -5.300781 5.84375 -5.613281 C 5.644531 -5.921875 5.386719 -6.128906 5.074219 -6.230469 C 4.84375 -6.304688 4.484375 -6.34375 3.992188 -6.34375 L 2.730469 -6.34375 Z M 1.570312 -0.8125 "/>
</g>
<g id="glyph-1-23">
<path d="M 0.429688 0 L 1.929688 -7.15625 L 4.917969 -7.15625 C 5.433594 -7.15625 5.824219 -7.097656 6.082031 -6.980469 C 6.339844 -6.859375 6.554688 -6.65625 6.722656 -6.371094 C 6.894531 -6.082031 6.976562 -5.757812 6.976562 -5.398438 C 6.976562 -5.105469 6.917969 -4.804688 6.796875 -4.496094 C 6.675781 -4.191406 6.523438 -3.9375 6.339844 -3.742188 C 6.15625 -3.542969 5.96875 -3.390625 5.78125 -3.289062 C 5.59375 -3.191406 5.390625 -3.117188 5.175781 -3.066406 C 4.71875 -2.960938 4.253906 -2.90625 3.785156 -2.90625 L 1.992188 -2.90625 L 1.386719 0 L 0.429688 0 M 2.164062 -3.714844 L 3.742188 -3.714844 C 4.351562 -3.714844 4.800781 -3.78125 5.085938 -3.914062 C 5.375 -4.046875 5.605469 -4.246094 5.777344 -4.515625 C 5.949219 -4.785156 6.035156 -5.074219 6.035156 -5.375 C 6.035156 -5.609375 5.988281 -5.800781 5.898438 -5.949219 C 5.808594 -6.097656 5.679688 -6.207031 5.511719 -6.277344 C 5.347656 -6.347656 5.027344 -6.382812 4.554688 -6.382812 L 2.71875 -6.382812 Z M 2.164062 -3.714844 "/>
</g>
<g id="glyph-1-24">
<path d="M 2.988281 0 L 3.375 -1.828125 L 0.453125 -1.828125 L 0.640625 -2.699219 L 4.648438 -7.15625 L 5.371094 -7.15625 L 4.417969 -2.609375 L 5.425781 -2.609375 L 5.265625 -1.828125 L 4.257812 -1.828125 L 3.871094 0 L 2.988281 0 M 3.535156 -2.609375 L 4.160156 -5.59375 L 1.492188 -2.609375 Z M 3.535156 -2.609375 "/>
</g>
<g id="glyph-1-25">
<path d="M 4.097656 -2.820312 L 4.265625 -3.632812 L 7.402344 -3.632812 L 6.792969 -0.71875 C 6.398438 -0.46875 5.949219 -0.269531 5.445312 -0.113281 C 4.941406 0.0429688 4.441406 0.121094 3.953125 0.121094 C 2.914062 0.121094 2.136719 -0.191406 1.621094 -0.820312 C 1.1875 -1.351562 0.972656 -2.03125 0.972656 -2.867188 C 0.972656 -3.726562 1.160156 -4.507812 1.539062 -5.210938 C 1.917969 -5.917969 2.398438 -6.4375 2.976562 -6.773438 C 3.554688 -7.113281 4.195312 -7.28125 4.902344 -7.28125 C 5.410156 -7.28125 5.867188 -7.1875 6.269531 -7.003906 C 6.671875 -6.820312 6.984375 -6.574219 7.195312 -6.265625 C 7.414062 -5.960938 7.566406 -5.558594 7.660156 -5.0625 L 6.722656 -4.960938 C 6.621094 -5.453125 6.414062 -5.828125 6.097656 -6.089844 C 5.777344 -6.351562 5.371094 -6.484375 4.875 -6.484375 C 4.355469 -6.484375 3.871094 -6.34375 3.421875 -6.0625 C 2.972656 -5.78125 2.613281 -5.355469 2.347656 -4.789062 C 2.078125 -4.21875 1.945312 -3.574219 1.945312 -2.851562 C 1.945312 -2.132812 2.121094 -1.589844 2.476562 -1.21875 C 2.832031 -0.851562 3.320312 -0.667969 3.945312 -0.667969 C 4.566406 -0.667969 5.234375 -0.875 5.953125 -1.285156 L 6.273438 -2.820312 Z M 4.097656 -2.820312 "/>
</g>
<g id="glyph-2-0">
<path d="M 4.867188 -3.15625 L 4.867188 -4.605469 L 8.609375 -4.605469 L 8.609375 -1.183594 C 8.242188 -0.832031 7.71875 -0.523438 7.027344 -0.253906 C 6.339844 0.0117188 5.640625 0.148438 4.933594 0.148438 C 4.035156 0.148438 3.25 -0.0429688 2.585938 -0.417969 C 1.914062 -0.796875 1.414062 -1.335938 1.078125 -2.035156 C 0.742188 -2.738281 0.574219 -3.5 0.574219 -4.324219 C 0.574219 -5.21875 0.761719 -6.011719 1.136719 -6.710938 C 1.511719 -7.402344 2.0625 -7.9375 2.78125 -8.308594 C 3.335938 -8.59375 4.019531 -8.734375 4.839844 -8.734375 C 5.90625 -8.734375 6.738281 -8.511719 7.339844 -8.066406 C 7.9375 -7.617188 8.324219 -7 8.496094 -6.210938 L 6.773438 -5.890625 C 6.652344 -6.3125 6.425781 -6.644531 6.089844 -6.886719 C 5.757812 -7.132812 5.339844 -7.253906 4.839844 -7.253906 C 4.082031 -7.253906 3.480469 -7.015625 3.03125 -6.53125 C 2.585938 -6.054688 2.359375 -5.339844 2.359375 -4.394531 C 2.359375 -3.375 2.585938 -2.609375 3.039062 -2.101562 C 3.492188 -1.589844 4.085938 -1.335938 4.820312 -1.335938 C 5.1875 -1.335938 5.550781 -1.40625 5.914062 -1.550781 C 6.28125 -1.691406 6.59375 -1.863281 6.855469 -2.070312 L 6.855469 -3.15625 Z M 4.867188 -3.15625 "/>
</g>
<g id="glyph-2-1">
<path d="M 4.464844 -1.980469 L 6.105469 -1.703125 C 5.894531 -1.101562 5.5625 -0.644531 5.105469 -0.332031 C 4.652344 -0.015625 4.082031 0.140625 3.398438 0.140625 C 2.316406 0.140625 1.515625 -0.214844 0.996094 -0.921875 C 0.585938 -1.484375 0.382812 -2.203125 0.382812 -3.0625 C 0.382812 -4.09375 0.648438 -4.902344 1.1875 -5.488281 C 1.726562 -6.070312 2.410156 -6.363281 3.234375 -6.363281 C 4.160156 -6.363281 4.890625 -6.058594 5.425781 -5.445312 C 5.960938 -4.835938 6.21875 -3.898438 6.195312 -2.636719 L 2.070312 -2.636719 C 2.078125 -2.148438 2.210938 -1.769531 2.46875 -1.496094 C 2.71875 -1.226562 3.035156 -1.089844 3.414062 -1.089844 C 3.671875 -1.089844 3.890625 -1.160156 4.066406 -1.300781 C 4.242188 -1.441406 4.375 -1.667969 4.464844 -1.980469 M 4.558594 -3.644531 C 4.546875 -4.121094 4.421875 -4.484375 4.1875 -4.730469 C 3.953125 -4.980469 3.667969 -5.101562 3.335938 -5.101562 C 2.972656 -5.101562 2.675781 -4.972656 2.445312 -4.710938 C 2.210938 -4.449219 2.09375 -4.09375 2.097656 -3.644531 Z M 4.558594 -3.644531 "/>
</g>
<g id="glyph-2-2">
<path d="M 6.523438 0 L 4.875 0 L 4.875 -3.175781 C 4.875 -3.847656 4.839844 -4.28125 4.769531 -4.480469 C 4.699219 -4.675781 4.585938 -4.828125 4.425781 -4.9375 C 4.269531 -5.046875 4.078125 -5.101562 3.855469 -5.101562 C 3.570312 -5.101562 3.3125 -5.023438 3.085938 -4.867188 C 2.859375 -4.710938 2.707031 -4.507812 2.621094 -4.25 C 2.539062 -3.992188 2.496094 -3.511719 2.496094 -2.820312 L 2.496094 0 L 0.851562 0 L 0.851562 -6.222656 L 2.378906 -6.222656 L 2.378906 -5.308594 C 2.921875 -6.011719 3.605469 -6.363281 4.429688 -6.363281 C 4.792969 -6.363281 5.125 -6.296875 5.425781 -6.167969 C 5.726562 -6.035156 5.953125 -5.867188 6.109375 -5.664062 C 6.261719 -5.460938 6.371094 -5.230469 6.429688 -4.976562 C 6.492188 -4.714844 6.523438 -4.347656 6.523438 -3.867188 Z M 6.523438 0 "/>
</g>
<g id="glyph-2-3">
<path d="M 0.28125 -1.773438 L 1.933594 -2.027344 C 2.003906 -1.707031 2.144531 -1.464844 2.359375 -1.296875 C 2.574219 -1.132812 2.875 -1.046875 3.265625 -1.046875 C 3.6875 -1.046875 4.007812 -1.125 4.226562 -1.28125 C 4.367188 -1.390625 4.441406 -1.539062 4.441406 -1.722656 C 4.441406 -1.847656 4.402344 -1.953125 4.324219 -2.03125 C 4.242188 -2.109375 4.058594 -2.183594 3.773438 -2.25 C 2.445312 -2.542969 1.601562 -2.808594 1.25 -3.054688 C 0.757812 -3.386719 0.507812 -3.855469 0.507812 -4.453125 C 0.507812 -4.992188 0.722656 -5.445312 1.148438 -5.8125 C 1.574219 -6.179688 2.234375 -6.363281 3.128906 -6.363281 C 3.980469 -6.363281 4.613281 -6.222656 5.027344 -5.945312 C 5.441406 -5.667969 5.726562 -5.257812 5.882812 -4.71875 L 4.328125 -4.429688 C 4.261719 -4.671875 4.136719 -4.859375 3.953125 -4.984375 C 3.765625 -5.117188 3.5 -5.179688 3.15625 -5.179688 C 2.726562 -5.179688 2.414062 -5.117188 2.226562 -5 C 2.101562 -4.910156 2.039062 -4.800781 2.039062 -4.664062 C 2.039062 -4.546875 2.09375 -4.445312 2.203125 -4.367188 C 2.351562 -4.253906 2.863281 -4.101562 3.742188 -3.902344 C 4.617188 -3.703125 5.230469 -3.457031 5.578125 -3.171875 C 5.921875 -2.875 6.09375 -2.46875 6.09375 -1.945312 C 6.09375 -1.375 5.855469 -0.882812 5.378906 -0.476562 C 4.902344 -0.0664062 4.195312 0.140625 3.265625 0.140625 C 2.414062 0.140625 1.746094 -0.03125 1.25 -0.375 C 0.757812 -0.71875 0.433594 -1.183594 0.28125 -1.773438 Z M 0.28125 -1.773438 "/>
</g>
<g id="glyph-2-4">
</g>
<g id="glyph-2-5">
<path d="M 0.859375 -7.066406 L 0.859375 -8.589844 L 2.507812 -8.589844 L 2.507812 -7.066406 L 0.859375 -7.066406 M 0.859375 0 L 0.859375 -6.222656 L 2.507812 -6.222656 L 2.507812 0 Z M 0.859375 0 "/>
</g>
<g id="glyph-2-6">
<path d="M 0.878906 0 L 0.878906 -8.589844 L 2.613281 -8.589844 L 2.613281 -5.210938 L 6.011719 -5.210938 L 6.011719 -8.589844 L 7.746094 -8.589844 L 7.746094 0 L 6.011719 0 L 6.011719 -3.757812 L 2.613281 -3.757812 L 2.613281 0 Z M 0.878906 0 "/>
</g>
<g id="glyph-2-7">
<path d="M 4.957031 0 L 4.957031 -0.929688 C 4.730469 -0.597656 4.433594 -0.335938 4.0625 -0.148438 C 3.695312 0.0429688 3.304688 0.140625 2.894531 0.140625 C 2.476562 0.140625 2.101562 0.046875 1.769531 -0.132812 C 1.4375 -0.316406 1.195312 -0.574219 1.046875 -0.90625 C 0.898438 -1.238281 0.828125 -1.699219 0.828125 -2.285156 L 0.828125 -6.222656 L 2.472656 -6.222656 L 2.472656 -3.363281 C 2.472656 -2.488281 2.503906 -1.953125 2.5625 -1.753906 C 2.625 -1.558594 2.734375 -1.402344 2.894531 -1.285156 C 3.054688 -1.171875 3.257812 -1.113281 3.503906 -1.113281 C 3.785156 -1.113281 4.039062 -1.191406 4.257812 -1.34375 C 4.484375 -1.5 4.632812 -1.691406 4.71875 -1.917969 C 4.796875 -2.148438 4.839844 -2.707031 4.839844 -3.597656 L 4.839844 -6.222656 L 6.484375 -6.222656 L 6.484375 0 Z M 4.957031 0 "/>
</g>
<g id="glyph-2-8">
<path d="M 0.738281 -6.222656 L 2.257812 -6.222656 L 2.257812 -5.375 C 2.796875 -6.03125 3.445312 -6.363281 4.195312 -6.363281 C 4.59375 -6.363281 4.9375 -6.28125 5.234375 -6.117188 C 5.523438 -5.953125 5.765625 -5.703125 5.953125 -5.375 C 6.226562 -5.703125 6.523438 -5.953125 6.835938 -6.117188 C 7.15625 -6.28125 7.492188 -6.363281 7.851562 -6.363281 C 8.308594 -6.363281 8.695312 -6.269531 9.011719 -6.085938 C 9.328125 -5.898438 9.5625 -5.625 9.71875 -5.265625 C 9.832031 -5 9.890625 -4.570312 9.890625 -3.976562 L 9.890625 0 L 8.242188 0 L 8.242188 -3.554688 C 8.242188 -4.171875 8.1875 -4.570312 8.074219 -4.75 C 7.921875 -4.984375 7.6875 -5.101562 7.371094 -5.101562 C 7.140625 -5.101562 6.921875 -5.03125 6.71875 -4.890625 C 6.515625 -4.75 6.371094 -4.546875 6.28125 -4.273438 C 6.191406 -4.003906 6.148438 -3.574219 6.148438 -2.988281 L 6.148438 0 L 4.5 0 L 4.5 -3.410156 C 4.5 -4.015625 4.46875 -4.40625 4.414062 -4.582031 C 4.351562 -4.757812 4.261719 -4.886719 4.140625 -4.976562 C 4.015625 -5.058594 3.851562 -5.101562 3.640625 -5.101562 C 3.382812 -5.101562 3.15625 -5.035156 2.953125 -4.898438 C 2.75 -4.761719 2.605469 -4.5625 2.515625 -4.304688 C 2.429688 -4.046875 2.382812 -3.621094 2.382812 -3.023438 L 2.382812 0 L 0.738281 0 Z M 0.738281 -6.222656 "/>
</g>
<g id="glyph-2-9">
<path d="M 2.09375 -4.324219 L 0.597656 -4.59375 C 0.765625 -5.195312 1.054688 -5.640625 1.464844 -5.929688 C 1.875 -6.21875 2.484375 -6.363281 3.292969 -6.363281 C 4.027344 -6.363281 4.574219 -6.277344 4.933594 -6.101562 C 5.292969 -5.929688 5.546875 -5.707031 5.691406 -5.441406 C 5.839844 -5.171875 5.914062 -4.679688 5.914062 -3.96875 L 5.894531 -2.046875 C 5.894531 -1.496094 5.921875 -1.09375 5.972656 -0.835938 C 6.027344 -0.574219 6.125 -0.296875 6.269531 0 L 4.640625 0 C 4.597656 -0.109375 4.542969 -0.273438 4.484375 -0.484375 C 4.453125 -0.582031 4.4375 -0.648438 4.421875 -0.679688 C 4.140625 -0.40625 3.839844 -0.199219 3.523438 -0.0625 C 3.199219 0.0703125 2.859375 0.140625 2.496094 0.140625 C 1.855469 0.140625 1.351562 -0.0351562 0.980469 -0.382812 C 0.613281 -0.726562 0.429688 -1.167969 0.429688 -1.699219 C 0.429688 -2.050781 0.511719 -2.363281 0.679688 -2.640625 C 0.847656 -2.914062 1.082031 -3.125 1.386719 -3.273438 C 1.6875 -3.417969 2.125 -3.546875 2.695312 -3.65625 C 3.464844 -3.800781 3.996094 -3.933594 4.296875 -4.0625 L 4.296875 -4.226562 C 4.296875 -4.539062 4.214844 -4.765625 4.0625 -4.902344 C 3.902344 -5.035156 3.609375 -5.101562 3.175781 -5.101562 C 2.882812 -5.101562 2.65625 -5.046875 2.492188 -4.929688 C 2.328125 -4.816406 2.191406 -4.613281 2.09375 -4.324219 M 4.296875 -2.988281 C 4.085938 -2.917969 3.75 -2.832031 3.292969 -2.734375 C 2.835938 -2.636719 2.539062 -2.542969 2.398438 -2.449219 C 2.179688 -2.296875 2.074219 -2.101562 2.074219 -1.867188 C 2.074219 -1.636719 2.160156 -1.4375 2.332031 -1.273438 C 2.503906 -1.101562 2.722656 -1.019531 2.988281 -1.019531 C 3.285156 -1.019531 3.570312 -1.117188 3.835938 -1.3125 C 4.039062 -1.460938 4.167969 -1.640625 4.230469 -1.859375 C 4.273438 -2 4.296875 -2.265625 4.296875 -2.660156 Z M 4.296875 -2.988281 "/>
</g>
<g id="glyph-2-10">
<path d="M 0.851562 0 L 0.851562 -8.589844 L 3.445312 -8.589844 L 5.003906 -2.730469 L 6.546875 -8.589844 L 9.148438 -8.589844 L 9.148438 0 L 7.535156 0 L 7.535156 -6.761719 L 5.828125 0 L 4.160156 0 L 2.460938 -6.761719 L 2.460938 0 Z M 0.851562 0 "/>
</g>
<g id="glyph-2-11">
<path d="M 6.289062 -4.382812 L 4.664062 -4.089844 C 4.609375 -4.414062 4.484375 -4.65625 4.292969 -4.820312 C 4.097656 -4.984375 3.847656 -5.070312 3.539062 -5.070312 C 3.128906 -5.070312 2.800781 -4.925781 2.558594 -4.644531 C 2.3125 -4.359375 2.191406 -3.886719 2.191406 -3.222656 C 2.191406 -2.484375 2.316406 -1.960938 2.5625 -1.65625 C 2.8125 -1.351562 3.144531 -1.203125 3.5625 -1.203125 C 3.875 -1.203125 4.132812 -1.289062 4.328125 -1.46875 C 4.53125 -1.644531 4.671875 -1.953125 4.75 -2.382812 L 6.367188 -2.109375 C 6.199219 -1.367188 5.878906 -0.804688 5.402344 -0.429688 C 4.925781 -0.0507812 4.285156 0.140625 3.484375 0.140625 C 2.574219 0.140625 1.851562 -0.148438 1.308594 -0.71875 C 0.769531 -1.292969 0.5 -2.089844 0.5 -3.105469 C 0.5 -4.132812 0.769531 -4.933594 1.3125 -5.503906 C 1.855469 -6.078125 2.589844 -6.363281 3.515625 -6.363281 C 4.273438 -6.363281 4.875 -6.199219 5.324219 -5.875 C 5.769531 -5.546875 6.089844 -5.050781 6.289062 -4.382812 Z M 6.289062 -4.382812 "/>
</g>
<g id="glyph-2-12">
<path d="M 2.4375 0 L 0.789062 0 L 0.789062 -6.222656 L 2.320312 -6.222656 L 2.320312 -5.335938 C 2.582031 -5.753906 2.816406 -6.03125 3.027344 -6.164062 C 3.234375 -6.296875 3.472656 -6.363281 3.738281 -6.363281 C 4.113281 -6.363281 4.472656 -6.257812 4.820312 -6.054688 L 4.3125 -4.617188 C 4.035156 -4.796875 3.777344 -4.886719 3.539062 -4.886719 C 3.308594 -4.886719 3.113281 -4.824219 2.953125 -4.695312 C 2.792969 -4.570312 2.667969 -4.339844 2.574219 -4.007812 C 2.484375 -3.675781 2.4375 -2.980469 2.4375 -1.921875 Z M 2.4375 0 "/>
</g>
<g id="glyph-2-13">
<path d="M 0.480469 -3.199219 C 0.480469 -3.746094 0.617188 -4.273438 0.882812 -4.789062 C 1.15625 -5.296875 1.535156 -5.6875 2.03125 -5.960938 C 2.523438 -6.226562 3.078125 -6.363281 3.6875 -6.363281 C 4.625 -6.363281 5.398438 -6.058594 6 -5.445312 C 6.601562 -4.835938 6.902344 -4.0625 6.902344 -3.128906 C 6.902344 -2.1875 6.597656 -1.40625 5.992188 -0.789062 C 5.382812 -0.167969 4.617188 0.140625 3.695312 0.140625 C 3.125 0.140625 2.582031 0.0117188 2.066406 -0.246094 C 1.546875 -0.503906 1.15625 -0.882812 0.882812 -1.378906 C 0.617188 -1.878906 0.480469 -2.484375 0.480469 -3.199219 M 2.167969 -3.109375 C 2.167969 -2.492188 2.3125 -2.023438 2.609375 -1.695312 C 2.898438 -1.367188 3.261719 -1.203125 3.691406 -1.203125 C 4.121094 -1.203125 4.480469 -1.367188 4.773438 -1.695312 C 5.0625 -2.023438 5.210938 -2.496094 5.210938 -3.125 C 5.210938 -3.734375 5.0625 -4.203125 4.773438 -4.53125 C 4.480469 -4.859375 4.121094 -5.023438 3.691406 -5.023438 C 3.261719 -5.023438 2.898438 -4.859375 2.609375 -4.53125 C 2.3125 -4.203125 2.167969 -3.726562 2.167969 -3.109375 Z M 2.167969 -3.109375 "/>
</g>
<g id="glyph-2-14">
<path d="M 0.8125 -6.222656 L 2.351562 -6.222656 L 2.351562 -5.308594 C 2.546875 -5.621094 2.820312 -5.875 3.15625 -6.070312 C 3.5 -6.265625 3.875 -6.363281 4.289062 -6.363281 C 5.011719 -6.363281 5.625 -6.078125 6.128906 -5.515625 C 6.632812 -4.945312 6.882812 -4.15625 6.882812 -3.148438 C 6.882812 -2.105469 6.628906 -1.300781 6.125 -0.722656 C 5.613281 -0.148438 5 0.140625 4.277344 0.140625 C 3.933594 0.140625 3.621094 0.0703125 3.34375 -0.0625 C 3.0625 -0.199219 2.769531 -0.433594 2.460938 -0.765625 L 2.460938 2.367188 L 0.8125 2.367188 L 0.8125 -6.222656 M 2.445312 -3.21875 C 2.441406 -2.515625 2.582031 -2 2.859375 -1.667969 C 3.136719 -1.332031 3.476562 -1.164062 3.875 -1.164062 C 4.253906 -1.164062 4.574219 -1.320312 4.828125 -1.625 C 5.082031 -1.933594 5.210938 -2.433594 5.210938 -3.132812 C 5.210938 -3.785156 5.078125 -4.273438 4.816406 -4.585938 C 4.554688 -4.902344 4.230469 -5.0625 3.84375 -5.0625 C 3.441406 -5.0625 3.105469 -4.90625 2.84375 -4.597656 C 2.574219 -4.285156 2.441406 -3.828125 2.445312 -3.21875 Z M 2.445312 -3.21875 "/>
</g>
<g id="glyph-2-15">
<path d="M 2.5 -8.589844 L 2.5 -5.429688 C 3.03125 -6.054688 3.667969 -6.363281 4.40625 -6.363281 C 4.785156 -6.363281 5.125 -6.292969 5.429688 -6.152344 C 5.734375 -6.011719 5.964844 -5.832031 6.121094 -5.613281 C 6.273438 -5.394531 6.378906 -5.152344 6.4375 -4.886719 C 6.492188 -4.621094 6.523438 -4.207031 6.523438 -3.648438 L 6.523438 0 L 4.875 0 L 4.875 -3.289062 C 4.875 -3.9375 4.84375 -4.351562 4.78125 -4.53125 C 4.71875 -4.703125 4.609375 -4.84375 4.449219 -4.949219 C 4.292969 -5.050781 4.09375 -5.101562 3.855469 -5.101562 C 3.582031 -5.101562 3.335938 -5.035156 3.125 -4.90625 C 2.90625 -4.769531 2.75 -4.570312 2.652344 -4.304688 C 2.550781 -4.035156 2.5 -3.640625 2.5 -3.117188 L 2.5 0 L 0.855469 0 L 0.855469 -8.589844 Z M 2.5 -8.589844 "/>
</g>
<g id="glyph-2-16">
<path d="M 0.710938 0.410156 L 2.589844 0.640625 C 2.621094 0.855469 2.691406 1.007812 2.804688 1.089844 C 2.960938 1.207031 3.207031 1.265625 3.546875 1.265625 C 3.972656 1.265625 4.296875 1.199219 4.511719 1.070312 C 4.65625 0.984375 4.765625 0.847656 4.839844 0.65625 C 4.890625 0.519531 4.914062 0.265625 4.914062 -0.101562 L 4.914062 -1.007812 C 4.421875 -0.335938 3.804688 0 3.054688 0 C 2.214844 0 1.554688 -0.355469 1.066406 -1.0625 C 0.683594 -1.617188 0.492188 -2.3125 0.492188 -3.148438 C 0.492188 -4.1875 0.742188 -4.984375 1.246094 -5.539062 C 1.746094 -6.085938 2.371094 -6.363281 3.117188 -6.363281 C 3.886719 -6.363281 4.519531 -6.023438 5.023438 -5.351562 L 5.023438 -6.222656 L 6.5625 -6.222656 L 6.5625 -0.640625 C 6.5625 0.09375 6.5 0.644531 6.382812 1.007812 C 6.257812 1.371094 6.089844 1.65625 5.871094 1.863281 C 5.652344 2.070312 5.359375 2.234375 4.996094 2.351562 C 4.628906 2.46875 4.167969 2.523438 3.609375 2.523438 C 2.554688 2.523438 1.804688 2.34375 1.367188 1.984375 C 0.921875 1.621094 0.703125 1.164062 0.703125 0.609375 C 0.703125 0.554688 0.703125 0.488281 0.710938 0.410156 M 2.179688 -3.242188 C 2.179688 -2.578125 2.308594 -2.097656 2.5625 -1.789062 C 2.820312 -1.484375 3.132812 -1.328125 3.507812 -1.328125 C 3.910156 -1.328125 4.25 -1.488281 4.53125 -1.800781 C 4.804688 -2.117188 4.945312 -2.582031 4.945312 -3.199219 C 4.945312 -3.84375 4.8125 -4.320312 4.546875 -4.632812 C 4.28125 -4.945312 3.945312 -5.101562 3.539062 -5.101562 C 3.144531 -5.101562 2.820312 -4.949219 2.5625 -4.644531 C 2.308594 -4.335938 2.179688 -3.867188 2.179688 -3.242188 Z M 2.179688 -3.242188 "/>
</g>
<g id="glyph-2-17">
<path d="M 0.875 0 L 0.875 -8.589844 L 3.65625 -8.589844 C 4.710938 -8.589844 5.398438 -8.546875 5.71875 -8.460938 C 6.210938 -8.332031 6.621094 -8.050781 6.953125 -7.621094 C 7.285156 -7.1875 7.453125 -6.628906 7.453125 -5.945312 C 7.453125 -5.421875 7.355469 -4.976562 7.164062 -4.617188 C 6.972656 -4.257812 6.730469 -3.976562 6.4375 -3.769531 C 6.140625 -3.566406 5.839844 -3.429688 5.539062 -3.363281 C 5.121094 -3.28125 4.523438 -3.242188 3.738281 -3.242188 L 2.609375 -3.242188 L 2.609375 0 L 0.875 0 M 2.609375 -7.136719 L 2.609375 -4.699219 L 3.554688 -4.699219 C 4.238281 -4.699219 4.695312 -4.742188 4.929688 -4.835938 C 5.15625 -4.921875 5.339844 -5.0625 5.46875 -5.257812 C 5.601562 -5.445312 5.664062 -5.667969 5.664062 -5.921875 C 5.664062 -6.234375 5.574219 -6.492188 5.390625 -6.695312 C 5.207031 -6.898438 4.972656 -7.027344 4.695312 -7.078125 C 4.484375 -7.117188 4.070312 -7.136719 3.445312 -7.136719 Z M 2.609375 -7.136719 "/>
</g>
<g id="glyph-2-18">
<path d="M 0.859375 0 L 0.859375 -8.589844 L 2.507812 -8.589844 L 2.507812 0 Z M 0.859375 0 "/>
</g>
<g id="glyph-2-19">
<path d="M 0.199219 0 L 0.199219 -1.28125 L 2.53125 -3.960938 C 2.914062 -4.398438 3.195312 -4.707031 3.382812 -4.890625 C 3.1875 -4.882812 2.9375 -4.871094 2.625 -4.867188 L 0.429688 -4.859375 L 0.429688 -6.222656 L 5.570312 -6.222656 L 5.570312 -5.054688 L 3.195312 -2.3125 L 2.355469 -1.40625 C 2.8125 -1.433594 3.09375 -1.445312 3.203125 -1.445312 L 5.753906 -1.445312 L 5.753906 0 Z M 0.199219 0 "/>
</g>
<g id="glyph-2-20">
<path d="M 3.714844 -6.222656 L 3.714844 -4.910156 L 2.589844 -4.910156 L 2.589844 -2.402344 C 2.589844 -1.894531 2.601562 -1.597656 2.621094 -1.515625 C 2.644531 -1.429688 2.691406 -1.359375 2.769531 -1.304688 C 2.84375 -1.25 2.9375 -1.226562 3.046875 -1.226562 C 3.199219 -1.226562 3.417969 -1.277344 3.710938 -1.382812 L 3.851562 -0.105469 C 3.464844 0.0585938 3.03125 0.140625 2.546875 0.140625 C 2.25 0.140625 1.984375 0.0898438 1.746094 -0.0078125 C 1.507812 -0.109375 1.332031 -0.238281 1.222656 -0.394531 C 1.109375 -0.554688 1.03125 -0.765625 0.992188 -1.039062 C 0.953125 -1.226562 0.9375 -1.613281 0.9375 -2.195312 L 0.9375 -4.910156 L 0.179688 -4.910156 L 0.179688 -6.222656 L 0.9375 -6.222656 L 0.9375 -7.460938 L 2.589844 -8.421875 L 2.589844 -6.222656 Z M 3.714844 -6.222656 "/>
</g>
</g>
</defs>
<rect x="-43.2" y="-21.6" width="518.4" height="259.2" fill="rgb(100%, 100%, 100%)" fill-opacity="1"/>
<g fill="rgb(0%, 0%, 0%)" fill-opacity="1">
<use xlink:href="#glyph-0-0" x="141.191406" y="71.730469"/>
<use xlink:href="#glyph-0-1" x="147.861328" y="71.730469"/>
</g>
<g fill="rgb(0%, 44.705882%, 69.803922%)" fill-opacity="1">
<use xlink:href="#glyph-1-0" x="133.136719" y="91.230469"/>
<use xlink:href="#glyph-1-1" x="140.358398" y="91.230469"/>
<use xlink:href="#glyph-1-2" x="143.136719" y="91.230469"/>
<use xlink:href="#glyph-1-3" x="149.245117" y="91.230469"/>
<use xlink:href="#glyph-1-4" x="154.806641" y="91.230469"/>
</g>
<g fill="rgb(0%, 0%, 0%)" fill-opacity="1">
<use xlink:href="#glyph-0-0" x="188.375" y="71.730469"/>
<use xlink:href="#glyph-0-2" x="195.044922" y="71.730469"/>
</g>
<g fill="rgb(0%, 44.705882%, 69.803922%)" fill-opacity="1">
<use xlink:href="#glyph-1-1" x="136.472656" y="110.726562"/>
<use xlink:href="#glyph-1-5" x="139.250977" y="110.726562"/>
<use xlink:href="#glyph-1-2" x="146.472656" y="110.726562"/>
<use xlink:href="#glyph-1-6" x="152.581055" y="110.726562"/>
</g>
<g fill="rgb(0%, 0%, 0%)" fill-opacity="1">
<use xlink:href="#glyph-0-0" x="233.890625" y="71.730469"/>
<use xlink:href="#glyph-0-3" x="240.560547" y="71.730469"/>
</g>
<g fill="rgb(83.529412%, 36.862745%, 0%)" fill-opacity="1">
<use xlink:href="#glyph-1-7" x="136.199219" y="130.222656"/>
<use xlink:href="#glyph-1-8" x="144.529297" y="130.222656"/>
<use xlink:href="#glyph-1-9" x="151.199219" y="130.222656"/>
</g>
<g fill="rgb(0%, 0%, 0%)" fill-opacity="1">
<use xlink:href="#glyph-0-0" x="279.960938" y="71.730469"/>
<use xlink:href="#glyph-0-4" x="286.630859" y="71.730469"/>
</g>
<g fill="rgb(0%, 44.705882%, 69.803922%)" fill-opacity="1">
<use xlink:href="#glyph-1-5" x="134.246094" y="149.71875"/>
<use xlink:href="#glyph-1-10" x="141.467773" y="149.71875"/>
<use xlink:href="#glyph-1-11" x="148.137695" y="149.71875"/>
<use xlink:href="#glyph-1-4" x="153.699219" y="149.71875"/>
</g>
<g fill="rgb(0%, 44.705882%, 69.803922%)" fill-opacity="1">
<use xlink:href="#glyph-1-12" x="128.414062" y="169.214844"/>
<use xlink:href="#glyph-1-13" x="135.083984" y="169.214844"/>
<use xlink:href="#glyph-1-4" x="141.192383" y="169.214844"/>
<use xlink:href="#glyph-1-13" x="147.862305" y="169.214844"/>
<use xlink:href="#glyph-1-6" x="153.970703" y="169.214844"/>
<use xlink:href="#glyph-1-4" x="159.532227" y="169.214844"/>
</g>
<g fill="rgb(0%, 44.705882%, 69.803922%)" fill-opacity="1">
<use xlink:href="#glyph-1-1" x="180.320312" y="91.230469"/>
<use xlink:href="#glyph-1-2" x="183.098633" y="91.230469"/>
<use xlink:href="#glyph-1-14" x="189.207031" y="91.230469"/>
<use xlink:href="#glyph-1-15" x="196.428711" y="91.230469"/>
<use xlink:href="#glyph-1-3" x="203.098633" y="91.230469"/>
</g>
<g fill="rgb(0%, 44.705882%, 69.803922%)" fill-opacity="1">
<use xlink:href="#glyph-1-16" x="184.769531" y="110.726562"/>
<use xlink:href="#glyph-1-17" x="189.769531" y="110.726562"/>
<use xlink:href="#glyph-1-14" x="196.991211" y="110.726562"/>
</g>
<g fill="rgb(0%, 44.705882%, 69.803922%)" fill-opacity="1">
<use xlink:href="#glyph-1-14" x="178.375" y="130.222656"/>
<use xlink:href="#glyph-1-2" x="185.59668" y="130.222656"/>
<use xlink:href="#glyph-1-18" x="191.705078" y="130.222656"/>
<use xlink:href="#glyph-1-15" x="198.375" y="130.222656"/>
<use xlink:href="#glyph-1-3" x="205.044922" y="130.222656"/>
</g>
<g fill="rgb(83.529412%, 36.862745%, 0%)" fill-opacity="1">
<use xlink:href="#glyph-1-12" x="177.542969" y="149.71875"/>
<use xlink:href="#glyph-1-19" x="184.212891" y="149.71875"/>
<use xlink:href="#glyph-1-9" x="191.991211" y="149.71875"/>
<use xlink:href="#glyph-1-12" x="199.212891" y="149.71875"/>
<use xlink:href="#glyph-1-3" x="205.882812" y="149.71875"/>
</g>
<g fill="rgb(83.529412%, 36.862745%, 0%)" fill-opacity="1">
<use xlink:href="#glyph-1-12" x="178.933594" y="169.214844"/>
<use xlink:href="#glyph-1-13" x="185.603516" y="169.214844"/>
<use xlink:href="#glyph-1-4" x="191.711914" y="169.214844"/>
<use xlink:href="#glyph-1-13" x="198.381836" y="169.214844"/>
<use xlink:href="#glyph-1-20" x="204.490234" y="169.214844"/>
</g>
<g fill="rgb(0%, 44.705882%, 69.803922%)" fill-opacity="1">
<use xlink:href="#glyph-1-1" x="229.171875" y="91.230469"/>
<use xlink:href="#glyph-1-5" x="231.950195" y="91.230469"/>
<use xlink:href="#glyph-1-2" x="239.171875" y="91.230469"/>
<use xlink:href="#glyph-1-21" x="245.280273" y="91.230469"/>
</g>
<g fill="rgb(83.529412%, 36.862745%, 0%)" fill-opacity="1">
<use xlink:href="#glyph-1-18" x="222.78125" y="110.726562"/>
<use xlink:href="#glyph-1-22" x="229.451172" y="110.726562"/>
<use xlink:href="#glyph-1-7" x="236.672852" y="110.726562"/>
<use xlink:href="#glyph-1-20" x="245.00293" y="110.726562"/>
<use xlink:href="#glyph-1-15" x="250.564453" y="110.726562"/>
</g>
<g fill="rgb(83.529412%, 36.862745%, 0%)" fill-opacity="1">
<use xlink:href="#glyph-1-23" x="222.78125" y="130.222656"/>
<use xlink:href="#glyph-1-23" x="229.451172" y="130.222656"/>
<use xlink:href="#glyph-1-4" x="236.121094" y="130.222656"/>
<use xlink:href="#glyph-1-5" x="242.791016" y="130.222656"/>
<use xlink:href="#glyph-1-22" x="250.012695" y="130.222656"/>
</g>
<g fill="rgb(0%, 44.705882%, 69.803922%)" fill-opacity="1">
<use xlink:href="#glyph-1-12" x="223.058594" y="149.71875"/>
<use xlink:href="#glyph-1-19" x="229.728516" y="149.71875"/>
<use xlink:href="#glyph-1-9" x="237.506836" y="149.71875"/>
<use xlink:href="#glyph-1-12" x="244.728516" y="149.71875"/>
<use xlink:href="#glyph-1-21" x="251.398438" y="149.71875"/>
</g>
<g fill="rgb(0%, 44.705882%, 69.803922%)" fill-opacity="1">
<use xlink:href="#glyph-1-0" x="225.835938" y="169.214844"/>
<use xlink:href="#glyph-1-1" x="233.057617" y="169.214844"/>
<use xlink:href="#glyph-1-2" x="235.835938" y="169.214844"/>
<use xlink:href="#glyph-1-3" x="241.944336" y="169.214844"/>
<use xlink:href="#glyph-1-4" x="247.505859" y="169.214844"/>
</g>
<g fill="rgb(83.529412%, 36.862745%, 0%)" fill-opacity="1">
<use xlink:href="#glyph-1-1" x="275.242188" y="91.230469"/>
<use xlink:href="#glyph-1-5" x="278.020508" y="91.230469"/>
<use xlink:href="#glyph-1-2" x="285.242188" y="91.230469"/>
<use xlink:href="#glyph-1-24" x="291.350586" y="91.230469"/>
</g>
<g fill="rgb(83.529412%, 36.862745%, 0%)" fill-opacity="1">
<use xlink:href="#glyph-1-18" x="274.128906" y="110.726562"/>
<use xlink:href="#glyph-1-11" x="280.798828" y="110.726562"/>
<use xlink:href="#glyph-1-2" x="286.360352" y="110.726562"/>
<use xlink:href="#glyph-1-24" x="292.46875" y="110.726562"/>
</g>
<g fill="rgb(83.529412%, 36.862745%, 0%)" fill-opacity="1">
<use xlink:href="#glyph-1-23" x="268.574219" y="130.222656"/>
<use xlink:href="#glyph-1-23" x="275.244141" y="130.222656"/>
<use xlink:href="#glyph-1-4" x="281.914062" y="130.222656"/>
<use xlink:href="#glyph-1-5" x="288.583984" y="130.222656"/>
<use xlink:href="#glyph-1-25" x="295.805664" y="130.222656"/>
</g>
<g fill="rgb(0%, 44.705882%, 69.803922%)" fill-opacity="1">
<use xlink:href="#glyph-1-12" x="270.519531" y="149.71875"/>
<use xlink:href="#glyph-1-13" x="277.189453" y="149.71875"/>
<use xlink:href="#glyph-1-4" x="283.297852" y="149.71875"/>
<use xlink:href="#glyph-1-13" x="289.967773" y="149.71875"/>
<use xlink:href="#glyph-1-3" x="296.076172" y="149.71875"/>
</g>
<g fill="rgb(0%, 44.705882%, 69.803922%)" fill-opacity="1">
<use xlink:href="#glyph-1-1" x="271.90625" y="169.214844"/>
<use xlink:href="#glyph-1-2" x="274.68457" y="169.214844"/>
<use xlink:href="#glyph-1-14" x="280.792969" y="169.214844"/>
<use xlink:href="#glyph-1-15" x="288.014648" y="169.214844"/>
<use xlink:href="#glyph-1-3" x="294.68457" y="169.214844"/>
</g>
<g fill="rgb(0%, 0%, 0%)" fill-opacity="1">
<use xlink:href="#glyph-2-0" x="95.976562" y="13.191406"/>
<use xlink:href="#glyph-2-1" x="105.310547" y="13.191406"/>
<use xlink:href="#glyph-2-2" x="111.984375" y="13.191406"/>
<use xlink:href="#glyph-2-1" x="119.314453" y="13.191406"/>
<use xlink:href="#glyph-2-3" x="125.988281" y="13.191406"/>
<use xlink:href="#glyph-2-4" x="132.662109" y="13.191406"/>
<use xlink:href="#glyph-2-5" x="135.996094" y="13.191406"/>
<use xlink:href="#glyph-2-2" x="139.330078" y="13.191406"/>
<use xlink:href="#glyph-2-4" x="146.660156" y="13.191406"/>
<use xlink:href="#glyph-2-6" x="149.994141" y="13.191406"/>
<use xlink:href="#glyph-2-7" x="158.660156" y="13.191406"/>
<use xlink:href="#glyph-2-8" x="165.990234" y="13.191406"/>
<use xlink:href="#glyph-2-9" x="176.660156" y="13.191406"/>
<use xlink:href="#glyph-2-2" x="183.333984" y="13.191406"/>
<use xlink:href="#glyph-2-4" x="190.664062" y="13.191406"/>
<use xlink:href="#glyph-2-10" x="193.998047" y="13.191406"/>
<use xlink:href="#glyph-2-9" x="203.994141" y="13.191406"/>
<use xlink:href="#glyph-2-11" x="210.667969" y="13.191406"/>
<use xlink:href="#glyph-2-12" x="217.341797" y="13.191406"/>
<use xlink:href="#glyph-2-13" x="222.011719" y="13.191406"/>
<use xlink:href="#glyph-2-14" x="229.341797" y="13.191406"/>
<use xlink:href="#glyph-2-15" x="236.671875" y="13.191406"/>
<use xlink:href="#glyph-2-9" x="244.001953" y="13.191406"/>
<use xlink:href="#glyph-2-16" x="250.675781" y="13.191406"/>
<use xlink:href="#glyph-2-1" x="258.005859" y="13.191406"/>
<use xlink:href="#glyph-2-4" x="264.679688" y="13.191406"/>
<use xlink:href="#glyph-2-17" x="268.013672" y="13.191406"/>
<use xlink:href="#glyph-2-13" x="276.017578" y="13.191406"/>
<use xlink:href="#glyph-2-18" x="283.347656" y="13.191406"/>
<use xlink:href="#glyph-2-9" x="286.681641" y="13.191406"/>
<use xlink:href="#glyph-2-12" x="293.355469" y="13.191406"/>
<use xlink:href="#glyph-2-5" x="298.025391" y="13.191406"/>
<use xlink:href="#glyph-2-19" x="301.359375" y="13.191406"/>
<use xlink:href="#glyph-2-9" x="307.359375" y="13.191406"/>
<use xlink:href="#glyph-2-20" x="314.033203" y="13.191406"/>
<use xlink:href="#glyph-2-5" x="318.029297" y="13.191406"/>
<use xlink:href="#glyph-2-13" x="321.363281" y="13.191406"/>
<use xlink:href="#glyph-2-2" x="328.693359" y="13.191406"/>
</g>
</svg>
